<svg xmlns="http://www.w3.org/2000/svg" viewBox="0 0 1600 800" width="1600" height="800">
  <defs>
    <linearGradient id="bg" x1="0" y1="0" x2="1" y2="1">
      <stop offset="0%" stop-color="#FFE4EC"/>
      <stop offset="50%" stop-color="#FFD0DC"/>
      <stop offset="100%" stop-color="#FFBECE"/>
    </linearGradient>
    <radialGradient id="glow" cx="50%" cy="50%" r="55%">
      <stop offset="0%" stop-color="rgba(255,255,255,0.6)"/>
      <stop offset="100%" stop-color="rgba(255,255,255,0)"/>
    </radialGradient>
    <filter id="shadow">
      <feDropShadow dx="0" dy="2" stdDeviation="4" flood-color="rgba(180,0,60,0.18)"/>
    </filter>
  </defs>

  <!-- Background -->
  <rect width="1600" height="800" fill="url(#bg)"/>
  <rect width="1600" height="800" fill="url(#glow)"/>

  <!-- Bead grid pattern - subtle background dots -->
  <g opacity="0.18">
    <!-- Row 1 -->
    <circle cx="60" cy="60" r="8" fill="#FF6B9D"/><circle cx="84" cy="60" r="8" fill="#FFB3C6"/><circle cx="108" cy="60" r="8" fill="#FFD166"/><circle cx="132" cy="60" r="8" fill="#06D6A0"/>
    <circle cx="156" cy="60" r="8" fill="#3A86FF"/><circle cx="180" cy="60" r="8" fill="#FF8FAB"/><circle cx="204" cy="60" r="8" fill="#7209B7"/><circle cx="228" cy="60" r="8" fill="#EF476F"/>
    <circle cx="300" cy="60" r="8" fill="#FFE66D"/><circle cx="324" cy="60" r="8" fill="#C9184A"/><circle cx="348" cy="60" r="8" fill="#73D2DE"/><circle cx="372" cy="60" r="8" fill="#FF6B9D"/>
    <circle cx="1200" cy="60" r="8" fill="#FFB3C6"/><circle cx="1224" cy="60" r="8" fill="#06D6A0"/><circle cx="1248" cy="60" r="8" fill="#FF8FAB"/><circle cx="1272" cy="60" r="8" fill="#FFD166"/>
    <circle cx="1400" cy="60" r="8" fill="#3A86FF"/><circle cx="1424" cy="60" r="8" fill="#EF476F"/><circle cx="1448" cy="60" r="8" fill="#B5179E"/><circle cx="1472" cy="60" r="8" fill="#FF6B9D"/>
    <circle cx="1496" cy="60" r="8" fill="#FFB3C6"/><circle cx="1520" cy="60" r="8" fill="#FFD166"/><circle cx="1544" cy="60" r="8" fill="#06D6A0"/>
    <!-- Row 2 -->
    <circle cx="60" cy="84" r="8" fill="#4CC9F0"/><circle cx="84" cy="84" r="8" fill="#FF6B9D"/><circle cx="108" cy="84" r="8" fill="#B5179E"/><circle cx="132" cy="84" r="8" fill="#FFB3C6"/>
    <circle cx="156" cy="84" r="8" fill="#FFE66D"/><circle cx="180" cy="84" r="8" fill="#06D6A0"/><circle cx="204" cy="84" r="8" fill="#3A86FF"/><circle cx="228" cy="84" r="8" fill="#FF8FAB"/>
    <circle cx="1400" cy="84" r="8" fill="#FF6B9D"/><circle cx="1424" cy="84" r="8" fill="#FFD166"/><circle cx="1448" cy="84" r="8" fill="#06D6A0"/><circle cx="1472" cy="84" r="8" fill="#B5179E"/>
    <circle cx="1496" cy="84" r="8" fill="#3A86FF"/><circle cx="1520" cy="84" r="8" fill="#EF476F"/><circle cx="1544" cy="84" r="8" fill="#FF8FAB"/>
    <!-- Rows at bottom -->
    <circle cx="60" cy="700" r="8" fill="#FFD166"/><circle cx="84" cy="700" r="8" fill="#06D6A0"/><circle cx="108" cy="700" r="8" fill="#FF6B9D"/><circle cx="132" cy="700" r="8" fill="#3A86FF"/>
    <circle cx="156" cy="700" r="8" fill="#B5179E"/><circle cx="180" cy="700" r="8" fill="#FFB3C6"/><circle cx="204" cy="700" r="8" fill="#EF476F"/><circle cx="228" cy="700" r="8" fill="#FFE66D"/>
    <circle cx="300" cy="700" r="8" fill="#FF8FAB"/><circle cx="324" cy="700" r="8" fill="#4CC9F0"/><circle cx="348" cy="700" r="8" fill="#FF6B9D"/><circle cx="372" cy="700" r="8" fill="#FFD166"/>
    <circle cx="1200" cy="700" r="8" fill="#06D6A0"/><circle cx="1224" cy="700" r="8" fill="#FF6B9D"/><circle cx="1248" cy="700" r="8" fill="#FFB3C6"/><circle cx="1272" cy="700" r="8" fill="#3A86FF"/>
    <circle cx="1400" cy="700" r="8" fill="#B5179E"/><circle cx="1424" cy="700" r="8" fill="#FFE66D"/><circle cx="1448" cy="700" r="8" fill="#EF476F"/><circle cx="1472" cy="700" r="8" fill="#FF8FAB"/>
    <circle cx="1496" cy="700" r="8" fill="#FFD166"/><circle cx="1520" cy="700" r="8" fill="#06D6A0"/><circle cx="1544" cy="700" r="8" fill="#FF6B9D"/>
    <circle cx="60" cy="724" r="8" fill="#3A86FF"/><circle cx="84" cy="724" r="8" fill="#FF8FAB"/><circle cx="108" cy="724" r="8" fill="#FFE66D"/><circle cx="132" cy="724" r="8" fill="#06D6A0"/>
    <circle cx="156" cy="724" r="8" fill="#FF6B9D"/><circle cx="180" cy="724" r="8" fill="#B5179E"/><circle cx="204" cy="724" r="8" fill="#4CC9F0"/><circle cx="228" cy="724" r="8" fill="#FFB3C6"/>
    <circle cx="1400" cy="724" r="8" fill="#FFD166"/><circle cx="1424" cy="724" r="8" fill="#FF6B9D"/><circle cx="1448" cy="724" r="8" fill="#3A86FF"/><circle cx="1472" cy="724" r="8" fill="#FFB3C6"/>
    <circle cx="1496" cy="724" r="8" fill="#EF476F"/><circle cx="1520" cy="724" r="8" fill="#FF8FAB"/><circle cx="1544" cy="724" r="8" fill="#06D6A0"/>
    <!-- Scattered beads -->
    <circle cx="450" cy="140" r="8" fill="#FF6B9D"/><circle cx="520" cy="180" r="8" fill="#FFD166"/><circle cx="1100" cy="130" r="8" fill="#06D6A0"/><circle cx="1150" cy="170" r="8" fill="#3A86FF"/>
    <circle cx="450" cy="640" r="8" fill="#B5179E"/><circle cx="520" cy="660" r="8" fill="#FF8FAB"/><circle cx="1100" cy="650" r="8" fill="#FFE66D"/><circle cx="1150" cy="620" r="8" fill="#EF476F"/>
  </g>

  <!-- Decorative bead cluster - top left -->
  <g opacity="0.35" transform="translate(80,120)">
    <circle cx="0" cy="0" r="12" fill="#FF6B9D"/><circle cx="26" cy="0" r="12" fill="#FFD166"/><circle cx="52" cy="0" r="12" fill="#06D6A0"/>
    <circle cx="13" cy="23" r="12" fill="#3A86FF"/><circle cx="39" cy="23" r="12" fill="#B5179E"/>
    <circle cx="0" cy="46" r="12" fill="#EF476F"/><circle cx="26" cy="46" r="12" fill="#4CC9F0"/><circle cx="52" cy="46" r="12" fill="#FFB3C6"/>
  </g>

  <!-- Decorative bead cluster - bottom right -->
  <g opacity="0.35" transform="translate(1400,580)">
    <circle cx="0" cy="0" r="12" fill="#FFE66D"/><circle cx="26" cy="0" r="12" fill="#FF6B9D"/><circle cx="52" cy="0" r="12" fill="#3A86FF"/><circle cx="78" cy="0" r="12" fill="#06D6A0"/>
    <circle cx="13" cy="23" r="12" fill="#B5179E"/><circle cx="39" cy="23" r="12" fill="#FFD166"/><circle cx="65" cy="23" r="12" fill="#EF476F"/>
    <circle cx="0" cy="46" r="12" fill="#FF8FAB"/><circle cx="26" cy="46" r="12" fill="#4CC9F0"/><circle cx="52" cy="46" r="12" fill="#FFB3C6"/><circle cx="78" cy="46" r="12" fill="#7209B7"/>
  </g>

  <!-- Central bead board illustration -->
  <g transform="translate(540, 240)" filter="url(#shadow)">
    <!-- Board background -->
    <rect x="0" y="0" width="520" height="320" rx="16" fill="white" opacity="0.5"/>
    <rect x="0" y="0" width="520" height="320" rx="16" fill="none" stroke="#FF8FAB" stroke-width="2" stroke-dasharray="8 4" opacity="0.5"/>

    <!-- 8x5 bead grid inside board - a heart pattern -->
    <!-- Row 0 -->
    <circle cx="100" cy="60" r="14" fill="#FFD6E0" opacity="0.4"/>
    <circle cx="140" cy="60" r="14" fill="#FF6B9D"/>
    <circle cx="180" cy="60" r="14" fill="#FF2D6F"/>
    <circle cx="220" cy="60" r="14" fill="#FFD6E0" opacity="0.4"/>
    <circle cx="260" cy="60" r="14" fill="#FFD6E0" opacity="0.4"/>
    <circle cx="300" cy="60" r="14" fill="#FF6B9D"/>
    <circle cx="340" cy="60" r="14" fill="#FF2D6F"/>
    <circle cx="380" cy="60" r="14" fill="#FFD6E0" opacity="0.4"/>
    <circle cx="420" cy="60" r="14" fill="#FFD6E0" opacity="0.4"/>
    <!-- Row 1 -->
    <circle cx="100" cy="100" r="14" fill="#FF6B9D"/>
    <circle cx="140" cy="100" r="14" fill="#FF2D6F"/>
    <circle cx="180" cy="100" r="14" fill="#C9184A"/>
    <circle cx="220" cy="100" r="14" fill="#FF2D6F"/>
    <circle cx="260" cy="100" r="14" fill="#FF2D6F"/>
    <circle cx="300" cy="100" r="14" fill="#C9184A"/>
    <circle cx="340" cy="100" r="14" fill="#FF2D6F"/>
    <circle cx="380" cy="100" r="14" fill="#FF6B9D"/>
    <circle cx="420" cy="100" r="14" fill="#FFD6E0" opacity="0.4"/>
    <!-- Row 2 -->
    <circle cx="100" cy="140" r="14" fill="#FFD6E0" opacity="0.4"/>
    <circle cx="140" cy="140" r="14" fill="#FF6B9D"/>
    <circle cx="180" cy="140" r="14" fill="#FF2D6F"/>
    <circle cx="220" cy="140" r="14" fill="#C9184A"/>
    <circle cx="260" cy="140" r="14" fill="#C9184A"/>
    <circle cx="300" cy="140" r="14" fill="#FF2D6F"/>
    <circle cx="340" cy="140" r="14" fill="#FF6B9D"/>
    <circle cx="380" cy="140" r="14" fill="#FFD6E0" opacity="0.4"/>
    <circle cx="420" cy="140" r="14" fill="#FFD6E0" opacity="0.4"/>
    <!-- Row 3 -->
    <circle cx="100" cy="180" r="14" fill="#FFD6E0" opacity="0.4"/>
    <circle cx="140" cy="180" r="14" fill="#FFD6E0" opacity="0.4"/>
    <circle cx="180" cy="180" r="14" fill="#FF6B9D"/>
    <circle cx="220" cy="180" r="14" fill="#FF2D6F"/>
    <circle cx="260" cy="180" r="14" fill="#FF2D6F"/>
    <circle cx="300" cy="180" r="14" fill="#FF6B9D"/>
    <circle cx="340" cy="180" r="14" fill="#FFD6E0" opacity="0.4"/>
    <circle cx="380" cy="180" r="14" fill="#FFD6E0" opacity="0.4"/>
    <circle cx="420" cy="180" r="14" fill="#FFD6E0" opacity="0.4"/>
    <!-- Row 4 -->
    <circle cx="100" cy="220" r="14" fill="#FFD6E0" opacity="0.4"/>
    <circle cx="140" cy="220" r="14" fill="#FFD6E0" opacity="0.4"/>
    <circle cx="180" cy="220" r="14" fill="#FFD6E0" opacity="0.4"/>
    <circle cx="220" cy="220" r="14" fill="#FF6B9D"/>
    <circle cx="260" cy="220" r="14" fill="#FF6B9D"/>
    <circle cx="300" cy="220" r="14" fill="#FFD6E0" opacity="0.4"/>
    <circle cx="340" cy="220" r="14" fill="#FFD6E0" opacity="0.4"/>
    <circle cx="380" cy="220" r="14" fill="#FFD6E0" opacity="0.4"/>
    <circle cx="420" cy="220" r="14" fill="#FFD6E0" opacity="0.4"/>
    <!-- Row 5 -->
    <circle cx="100" cy="260" r="14" fill="#FFD6E0" opacity="0.4"/>
    <circle cx="140" cy="260" r="14" fill="#FFD6E0" opacity="0.4"/>
    <circle cx="180" cy="260" r="14" fill="#FFD6E0" opacity="0.4"/>
    <circle cx="220" cy="260" r="14" fill="#FFD6E0" opacity="0.4"/>
    <circle cx="260" cy="260" r="14" fill="#FFD6E0" opacity="0.4"/>
    <circle cx="300" cy="260" r="14" fill="#FFD6E0" opacity="0.4"/>
    <circle cx="340" cy="260" r="14" fill="#FFD6E0" opacity="0.4"/>
    <circle cx="380" cy="260" r="14" fill="#FFD6E0" opacity="0.4"/>
    <circle cx="420" cy="260" r="14" fill="#FFD6E0" opacity="0.4"/>
  </g>

  <!-- Title text -->
  <text x="800" y="310" text-anchor="middle" font-family="'Courier New', monospace" font-weight="700" font-size="68" fill="white" filter="url(#shadow)">Your Photo,</text>
  <text x="800" y="400" text-anchor="middle" font-family="'Courier New', monospace" font-weight="700" font-size="68" fill="#FF2D6F" filter="url(#shadow)">Now In Beads</text>
  <text x="800" y="490" text-anchor="middle" font-family="'Courier New', monospace" font-weight="700" font-size="68" fill="#FFB800" filter="url(#shadow)">One Bead At A Time.</text>

  <!-- Sparkle accents -->
  <text x="340" y="320" font-size="32" opacity="0.7">✨</text>
  <text x="1230" y="500" font-size="32" opacity="0.7">✨</text>
  <text x="160" y="500" font-size="24" opacity="0.4">🎨</text>
  <text x="1380" y="300" font-size="24" opacity="0.4">🧩</text>
</svg>
