<svg width="64" height="64" viewBox="0 0 64 64" fill="none" xmlns="http://www.w3.org/2000/svg">
  <defs>
    <linearGradient id="bg" x1="8" y1="8" x2="56" y2="56" gradientUnits="userSpaceOnUse">
      <stop offset="0" stop-color="#FCD34D"/>
      <stop offset="0.34" stop-color="#FB923C"/>
      <stop offset="0.72" stop-color="#8B5CF6"/>
      <stop offset="1" stop-color="#312E81"/>
    </linearGradient>
  </defs>
  <rect x="6" y="6" width="52" height="52" rx="16" fill="url(#bg)"/>
  <rect x="18" y="18" width="6" height="6" fill="#FFF7ED"/>
  <rect x="24" y="18" width="6" height="6" fill="#FFF7ED" fill-opacity="0.94"/>
  <rect x="30" y="18" width="6" height="6" fill="#FFF7ED" fill-opacity="0.88"/>
  <rect x="36" y="18" width="6" height="6" fill="#FFF7ED" fill-opacity="0.82"/>
  <rect x="18" y="24" width="6" height="6" fill="#FFF7ED"/>
  <rect x="36" y="24" width="6" height="6" fill="#FFF7ED"/>
  <rect x="18" y="30" width="6" height="6" fill="#FFF7ED"/>
  <rect x="30" y="30" width="6" height="6" fill="#FFF7ED"/>
  <rect x="36" y="30" width="6" height="6" fill="#FFF7ED"/>
  <rect x="18" y="36" width="6" height="6" fill="#FFF7ED"/>
  <rect x="36" y="36" width="6" height="6" fill="#FFF7ED"/>
  <rect x="24" y="42" width="6" height="6" fill="#FFF7ED"/>
  <rect x="30" y="42" width="6" height="6" fill="#FFF7ED"/>
  <rect x="42" y="16" width="4" height="4" rx="1" fill="#FFF7ED" fill-opacity="0.8"/>
  <rect x="46" y="20" width="3" height="3" rx="1" fill="#FFF7ED" fill-opacity="0.7"/>
</svg>
