<svg width="1600" height="900" viewBox="0 0 1600 900" fill="none" xmlns="http://www.w3.org/2000/svg">
  <defs>
    <linearGradient id="bg" x1="120" y1="80" x2="1440" y2="860" gradientUnits="userSpaceOnUse">
      <stop offset="0" stop-color="#12203E"/>
      <stop offset="0.52" stop-color="#0D1730"/>
      <stop offset="1" stop-color="#0A1226"/>
    </linearGradient>
    <radialGradient id="glowA" cx="0" cy="0" r="1" gradientUnits="userSpaceOnUse" gradientTransform="translate(1170 258) rotate(90) scale(332 332)">
      <stop stop-color="#7EA9FF" stop-opacity="0.22"/>
      <stop offset="1" stop-color="#7EA9FF" stop-opacity="0"/>
    </radialGradient>
    <radialGradient id="glowB" cx="0" cy="0" r="1" gradientUnits="userSpaceOnUse" gradientTransform="translate(1228 466) rotate(90) scale(280 280)">
      <stop stop-color="#66D1FF" stop-opacity="0.18"/>
      <stop offset="1" stop-color="#66D1FF" stop-opacity="0"/>
    </radialGradient>
    <linearGradient id="line" x1="0" y1="0" x2="1" y2="1">
      <stop stop-color="#79A6FF" stop-opacity="0.9"/>
      <stop offset="1" stop-color="#62D3FF" stop-opacity="0.95"/>
    </linearGradient>
    <filter id="shadow" x="0" y="0" width="1600" height="900" filterUnits="userSpaceOnUse" color-interpolation-filters="sRGB">
      <feDropShadow dx="0" dy="24" stdDeviation="28" flood-color="#020612" flood-opacity="0.24"/>
    </filter>
  </defs>

  <rect width="1600" height="900" rx="48" fill="url(#bg)"/>
  <rect x="1.5" y="1.5" width="1597" height="897" rx="46.5" stroke="rgba(173,191,230,0.16)" stroke-opacity="0.28"/>

  <g opacity="0.22">
    <path d="M0 148H1600" stroke="#A2B4DA" stroke-opacity="0.14"/>
    <path d="M0 296H1600" stroke="#A2B4DA" stroke-opacity="0.08"/>
    <path d="M0 444H1600" stroke="#A2B4DA" stroke-opacity="0.08"/>
    <path d="M0 592H1600" stroke="#A2B4DA" stroke-opacity="0.08"/>
    <path d="M0 740H1600" stroke="#A2B4DA" stroke-opacity="0.08"/>
    <path d="M214 0V900" stroke="#A2B4DA" stroke-opacity="0.06"/>
    <path d="M428 0V900" stroke="#A2B4DA" stroke-opacity="0.06"/>
    <path d="M642 0V900" stroke="#A2B4DA" stroke-opacity="0.06"/>
    <path d="M856 0V900" stroke="#A2B4DA" stroke-opacity="0.06"/>
    <path d="M1070 0V900" stroke="#A2B4DA" stroke-opacity="0.06"/>
    <path d="M1284 0V900" stroke="#A2B4DA" stroke-opacity="0.06"/>
  </g>

  <circle cx="1184" cy="274" r="364" fill="url(#glowA)"/>
  <circle cx="1232" cy="478" r="286" fill="url(#glowB)"/>

  <g filter="url(#shadow)">
    <rect x="92" y="94" width="206" height="54" rx="27" fill="rgba(255,255,255,0.05)"/>
    <rect x="102.5" y="104.5" width="185" height="33" rx="16.5" stroke="#AFC2EA" stroke-opacity="0.18"/>
    <text x="128" y="129" fill="#B9CBF0" font-size="22" font-family="Inter, Arial, sans-serif" letter-spacing="1.2">AI SIGNALS</text>

    <rect x="92" y="720" width="202" height="62" rx="31" fill="rgba(255,255,255,0.05)"/>
    <rect x="306" y="720" width="246" height="62" rx="31" fill="rgba(255,255,255,0.05)"/>
    <rect x="564" y="720" width="232" height="62" rx="31" fill="rgba(255,255,255,0.05)"/>
    <text x="126" y="759" fill="#F3F7FF" font-size="28" font-weight="700" font-family="Inter, Arial, sans-serif">20 papers</text>
    <text x="340" y="759" fill="#F3F7FF" font-size="28" font-weight="700" font-family="Inter, Arial, sans-serif">4 active dimensions</text>
    <text x="598" y="759" fill="#F3F7FF" font-size="28" font-weight="700" font-family="Inter, Arial, sans-serif">product radar</text>
  </g>

  <g opacity="0.95">
    <rect x="92" y="186" width="158" height="44" rx="22" fill="rgba(121,166,255,0.11)" stroke="#89ACF0" stroke-opacity="0.22"/>
    <rect x="264" y="186" width="126" height="44" rx="22" fill="rgba(255,255,255,0.05)" stroke="#AFC2EA" stroke-opacity="0.18"/>
    <rect x="404" y="186" width="150" height="44" rx="22" fill="rgba(255,255,255,0.05)" stroke="#AFC2EA" stroke-opacity="0.18"/>
    <rect x="568" y="186" width="112" height="44" rx="22" fill="rgba(255,255,255,0.05)" stroke="#AFC2EA" stroke-opacity="0.18"/>
    <text x="124" y="214" fill="#D8E5FF" font-size="20" font-weight="700" font-family="Inter, Arial, sans-serif">reasoning</text>
    <text x="298" y="214" fill="#D8E5FF" font-size="20" font-weight="700" font-family="Inter, Arial, sans-serif">agents</text>
    <text x="438" y="214" fill="#D8E5FF" font-size="20" font-weight="700" font-family="Inter, Arial, sans-serif">multimodal</text>
    <text x="602" y="214" fill="#D8E5FF" font-size="20" font-weight="700" font-family="Inter, Arial, sans-serif">safety</text>
  </g>

  <g opacity="0.9">
    <text x="94" y="328" fill="#F5F8FF" font-size="106" font-weight="800" font-family="Inter, Arial, sans-serif" letter-spacing="-4">AI Paper Radar</text>
    <text x="98" y="386" fill="#9FB4DA" font-size="31" font-family="Inter, Arial, sans-serif">Track the signals worth understanding.</text>
    <text x="98" y="430" fill="#8196BD" font-size="26" font-family="Inter, Arial, sans-serif">Turn weekly paper noise into clearer product judgement,</text>
    <text x="98" y="466" fill="#8196BD" font-size="26" font-family="Inter, Arial, sans-serif">capability maps, and opportunity notes.</text>
  </g>

  <g transform="translate(1168 448)">
    <circle r="250" stroke="#6D8BC5" stroke-opacity="0.16" stroke-width="1.5"/>
    <circle r="188" stroke="#6D8BC5" stroke-opacity="0.2" stroke-width="1.5"/>
    <circle r="126" stroke="#6D8BC5" stroke-opacity="0.24" stroke-width="1.5"/>
    <circle r="64" stroke="#6D8BC5" stroke-opacity="0.28" stroke-width="1.5"/>
    <path d="M0 -250V250" stroke="#6D8BC5" stroke-opacity="0.13" stroke-width="1.5"/>
    <path d="M-250 0H250" stroke="#6D8BC5" stroke-opacity="0.13" stroke-width="1.5"/>
    <path d="M-176 -176L176 176" stroke="#6D8BC5" stroke-opacity="0.1" stroke-width="1.5"/>
    <path d="M176 -176L-176 176" stroke="#6D8BC5" stroke-opacity="0.1" stroke-width="1.5"/>

    <path d="M0 -146L136 -40L98 136L-42 88L-146 18L-112 -102Z" fill="#7EA9FF" fill-opacity="0.1" stroke="url(#line)" stroke-width="4"/>

    <circle cx="0" cy="-146" r="12" fill="#A1C8FF"/>
    <circle cx="136" cy="-40" r="12" fill="#71D9FF"/>
    <circle cx="98" cy="136" r="12" fill="#A1C8FF"/>
    <circle cx="-42" cy="88" r="12" fill="#8DB3FF"/>
    <circle cx="-146" cy="18" r="12" fill="#6ACDFF"/>
    <circle cx="-112" cy="-102" r="12" fill="#8DB3FF"/>

    <circle cx="0" cy="-146" r="28" fill="#A1C8FF" fill-opacity="0.14"/>
    <circle cx="136" cy="-40" r="28" fill="#71D9FF" fill-opacity="0.14"/>
    <circle cx="98" cy="136" r="28" fill="#A1C8FF" fill-opacity="0.14"/>
    <circle cx="-42" cy="88" r="28" fill="#8DB3FF" fill-opacity="0.14"/>
    <circle cx="-146" cy="18" r="28" fill="#6ACDFF" fill-opacity="0.14"/>
    <circle cx="-112" cy="-102" r="28" fill="#8DB3FF" fill-opacity="0.14"/>
  </g>

  <g opacity="0.82">
    <text x="1050" y="776" fill="#9CB1D7" font-size="22" font-family="Inter, Arial, sans-serif">reasoning</text>
    <circle cx="1016" cy="769" r="8" fill="#8DB3FF"/>
    <text x="1186" y="776" fill="#9CB1D7" font-size="22" font-family="Inter, Arial, sans-serif">multimodal</text>
    <circle cx="1152" cy="769" r="8" fill="#71D9FF"/>
    <text x="1362" y="776" fill="#9CB1D7" font-size="22" font-family="Inter, Arial, sans-serif">agents</text>
    <circle cx="1328" cy="769" r="8" fill="#A1C8FF"/>
  </g>
</svg>